<svg width="22" height="22" viewBox="0 0 22 22" fill="none" xmlns="http://www.w3.org/2000/svg">
<path d="M4.36702 2.29167C4.27569 2.29002 4.18495 2.30658 4.10009 2.34038C4.01523 2.37419 3.93796 2.42457 3.87279 2.48857C3.80762 2.55258 3.75585 2.62893 3.72052 2.71316C3.68518 2.7974 3.66699 2.88783 3.66699 2.97917V17.1875C3.66699 18.5716 4.80376 19.7083 6.18783 19.7083H15.8128C17.1969 19.7083 18.3337 18.5716 18.3337 17.1875V2.97917C18.3337 2.86461 18.3051 2.75186 18.2504 2.65116C18.1958 2.55047 18.1169 2.46502 18.0208 2.40259C17.9248 2.34015 17.8146 2.3027 17.7004 2.29365C17.5862 2.2846 17.4716 2.30423 17.3669 2.35076L15.5693 3.15015L13.5471 2.34091C13.3833 2.27546 13.2007 2.27546 13.0369 2.34091L11.0003 3.15552L8.96379 2.34091C8.8 2.27546 8.61732 2.27546 8.45353 2.34091L6.43132 3.15015L4.63379 2.35076C4.54972 2.31341 4.459 2.29332 4.36702 2.29167ZM8.70866 3.71949L10.7452 4.53411C10.909 4.59955 11.0917 4.59955 11.2555 4.53411L13.292 3.71949L15.3285 4.53411C15.4138 4.56822 15.505 4.58493 15.5967 4.58324C15.6885 4.58155 15.779 4.56149 15.863 4.52426L16.9587 4.03728V17.1875C16.9587 17.8284 16.4537 18.3333 15.8128 18.3333H6.18783C5.54697 18.3333 5.04199 17.8284 5.04199 17.1875V4.03728L6.1377 4.52426C6.22161 4.56149 6.31212 4.58155 6.40391 4.58324C6.4957 4.58493 6.58689 4.56822 6.67212 4.53411L8.70866 3.71949ZM7.10449 7.79167C7.01339 7.79038 6.92294 7.80722 6.8384 7.84119C6.75386 7.87516 6.67691 7.9256 6.61203 7.98956C6.54716 8.05353 6.49564 8.12976 6.46047 8.21381C6.42531 8.29786 6.4072 8.38806 6.4072 8.47917C6.4072 8.57028 6.42531 8.66049 6.46047 8.74454C6.49564 8.82859 6.54716 8.90481 6.61203 8.96878C6.67691 9.03275 6.75386 9.08319 6.8384 9.11716C6.92294 9.15113 7.01339 9.16796 7.10449 9.16667H14.8962C14.9873 9.16796 15.0777 9.15113 15.1623 9.11716C15.2468 9.08319 15.3237 9.03275 15.3886 8.96878C15.4535 8.90481 15.505 8.82859 15.5402 8.74454C15.5753 8.66049 15.5935 8.57028 15.5935 8.47917C15.5935 8.38806 15.5753 8.29786 15.5402 8.21381C15.505 8.12976 15.4535 8.05353 15.3886 7.98956C15.3237 7.9256 15.2468 7.87516 15.1623 7.84119C15.0777 7.80722 14.9873 7.79038 14.8962 7.79167H7.10449ZM7.10449 11.9167C7.01339 11.9154 6.92294 11.9322 6.8384 11.9662C6.75386 12.0002 6.67691 12.0506 6.61203 12.1146C6.54716 12.1785 6.49564 12.2548 6.46047 12.3388C6.42531 12.4229 6.4072 12.5131 6.4072 12.6042C6.4072 12.6953 6.42531 12.7855 6.46047 12.8695C6.49564 12.9536 6.54716 13.0298 6.61203 13.0938C6.67691 13.1578 6.75386 13.2082 6.8384 13.2422C6.92294 13.2761 7.01339 13.293 7.10449 13.2917H11.2295C11.3206 13.293 11.411 13.2761 11.4956 13.2422C11.5801 13.2082 11.6571 13.1578 11.722 13.0938C11.7868 13.0298 11.8383 12.9536 11.8735 12.8695C11.9087 12.7855 11.9268 12.6953 11.9268 12.6042C11.9268 12.5131 11.9087 12.4229 11.8735 12.3388C11.8383 12.2548 11.7868 12.1785 11.722 12.1146C11.6571 12.0506 11.5801 12.0002 11.4956 11.9662C11.411 11.9322 11.3206 11.9154 11.2295 11.9167H7.10449ZM13.9795 11.9167C13.8884 11.9154 13.7979 11.9322 13.7134 11.9662C13.6289 12.0002 13.5519 12.0506 13.487 12.1146C13.4222 12.1785 13.3706 12.2548 13.3355 12.3388C13.3003 12.4229 13.2822 12.5131 13.2822 12.6042C13.2822 12.6953 13.3003 12.7855 13.3355 12.8695C13.3706 12.9536 13.4222 13.0298 13.487 13.0938C13.5519 13.1578 13.6289 13.2082 13.7134 13.2422C13.7979 13.2761 13.8884 13.293 13.9795 13.2917H14.8962C14.9873 13.293 15.0777 13.2761 15.1623 13.2422C15.2468 13.2082 15.3237 13.1578 15.3886 13.0938C15.4535 13.0298 15.505 12.9536 15.5402 12.8695C15.5753 12.7855 15.5935 12.6953 15.5935 12.6042C15.5935 12.5131 15.5753 12.4229 15.5402 12.3388C15.505 12.2548 15.4535 12.1785 15.3886 12.1146C15.3237 12.0506 15.2468 12.0002 15.1623 11.9662C15.0777 11.9322 14.9873 11.9154 14.8962 11.9167H13.9795ZM7.10449 14.6667C7.01339 14.6654 6.92294 14.6822 6.8384 14.7162C6.75386 14.7502 6.67691 14.8006 6.61203 14.8646C6.54716 14.9285 6.49564 15.0048 6.46047 15.0888C6.42531 15.1729 6.4072 15.2631 6.4072 15.3542C6.4072 15.4453 6.42531 15.5355 6.46047 15.6195C6.49564 15.7036 6.54716 15.7798 6.61203 15.8438C6.67691 15.9078 6.75386 15.9582 6.8384 15.9922C6.92294 16.0261 7.01339 16.043 7.10449 16.0417H11.2295C11.3206 16.043 11.411 16.0261 11.4956 15.9922C11.5801 15.9582 11.6571 15.9078 11.722 15.8438C11.7868 15.7798 11.8383 15.7036 11.8735 15.6195C11.9087 15.5355 11.9268 15.4453 11.9268 15.3542C11.9268 15.2631 11.9087 15.1729 11.8735 15.0888C11.8383 15.0048 11.7868 14.9285 11.722 14.8646C11.6571 14.8006 11.5801 14.7502 11.4956 14.7162C11.411 14.6822 11.3206 14.6654 11.2295 14.6667H7.10449ZM13.9795 14.6667C13.8884 14.6654 13.7979 14.6822 13.7134 14.7162C13.6289 14.7502 13.5519 14.8006 13.487 14.8646C13.4222 14.9285 13.3706 15.0048 13.3355 15.0888C13.3003 15.1729 13.2822 15.2631 13.2822 15.3542C13.2822 15.4453 13.3003 15.5355 13.3355 15.6195C13.3706 15.7036 13.4222 15.7798 13.487 15.8438C13.5519 15.9078 13.6289 15.9582 13.7134 15.9922C13.7979 16.0261 13.8884 16.043 13.9795 16.0417H14.8962C14.9873 16.043 15.0777 16.0261 15.1623 15.9922C15.2468 15.9582 15.3237 15.9078 15.3886 15.8438C15.4535 15.7798 15.505 15.7036 15.5402 15.6195C15.5753 15.5355 15.5935 15.4453 15.5935 15.3542C15.5935 15.2631 15.5753 15.1729 15.5402 15.0888C15.505 15.0048 15.4535 14.9285 15.3886 14.8646C15.3237 14.8006 15.2468 14.7502 15.1623 14.7162C15.0777 14.6822 14.9873 14.6654 14.8962 14.6667H13.9795Z" fill="white"/>
</svg>
