<svg width="141" height="36" viewBox="0 0 141 36" fill="none" xmlns="http://www.w3.org/2000/svg">
<g clip-path="url(#clip0_547_1364)">
<path fill-rule="evenodd" clip-rule="evenodd" d="M75.996 26.3676C77.1928 26.3676 78.2051 27.1359 78.5897 28.2027H73.4022C73.7868 27.1359 74.7983 26.3676 75.996 26.3676ZM81.943 29.1352C81.943 25.8557 79.2755 23.1873 75.996 23.1873C72.7165 23.1873 70.0481 25.8557 70.0481 29.1352C70.0481 32.4147 72.7165 35.0822 75.996 35.0822C77.8206 35.0822 79.4537 34.2542 80.546 32.9573L78.0928 30.9194C77.5852 31.5147 76.838 31.9019 75.996 31.9019C74.8633 31.9019 73.8913 31.217 73.4637 30.2415H81.8332L81.8464 30.173C81.907 29.8359 81.943 29.4899 81.943 29.1352ZM27.8649 31.9019H23.1199C21.5947 31.9019 20.3531 30.6595 20.3531 29.1343C20.3531 27.6083 21.5947 26.3667 23.1199 26.3667H27.8649V23.1873H23.1199C19.8404 23.1873 17.1729 25.8548 17.1729 29.1343C17.1729 32.4138 19.8404 35.0822 23.1199 35.0822H27.8649V31.9019ZM93.881 31.9019H89.1351C87.609 31.9019 86.3675 30.6595 86.3675 29.1343C86.3675 27.6083 87.609 26.3667 89.1351 26.3667H93.8801V23.1873H89.1351C85.8556 23.1873 83.1872 25.8548 83.1872 29.1343C83.1872 32.4138 85.8556 35.0822 89.1351 35.0822H93.8801L93.881 31.9019ZM35.3678 26.3676C33.8417 26.3676 32.6002 27.6083 32.6002 29.1343C32.6002 30.6604 33.8417 31.9019 35.3669 31.9019C36.8929 31.9019 38.1345 30.6604 38.1345 29.1343C38.1345 27.6083 36.8938 26.3676 35.3678 26.3676ZM35.3669 35.0822C32.0874 35.0822 29.4199 32.4147 29.4199 29.1343C29.4199 25.8557 32.0874 23.1873 35.3669 23.1873C38.6464 23.1873 41.3148 25.8557 41.3148 29.1343C41.3148 32.4147 38.6464 35.0822 35.3669 35.0822ZM48.6491 23.2066C45.367 23.2066 42.7021 25.8776 42.7021 29.1536V35.0822H45.8824V29.1536C45.8824 27.6276 47.1222 26.3869 48.6491 26.3869C50.1761 26.3869 51.4159 27.6276 51.4159 29.1536V35.0822H54.5962V29.1536C54.5962 25.8785 51.9313 23.2066 48.6491 23.2066ZM62.5346 23.2066C59.2595 23.2066 56.5876 25.8776 56.5876 29.1536V35.0822H59.7679V29.1536C59.7679 27.6276 61.0147 26.3869 62.5346 26.3869C64.0624 26.3869 65.3022 27.6276 65.3022 29.1536V35.0822H68.4825V29.1536C68.4825 25.8785 65.8176 23.2066 62.5346 23.2066ZM106.2 23.168V26.3483H102.409V35.0813H99.2283V26.3483H95.4369V23.168H106.2Z" fill="white"/>
<mask id="mask0_547_1364" style="mask-type:luminance" maskUnits="userSpaceOnUse" x="0" y="0" width="141" height="20">
<path d="M0 0.5625H140.18V19.6688H0V0.5625Z" fill="white"/>
</mask>
<g mask="url(#mask0_547_1364)">
<path fill-rule="evenodd" clip-rule="evenodd" d="M130.626 19.6688H9.55229C4.27785 19.6688 0 15.391 0 10.1157C0 4.8386 4.27785 0.5625 9.55317 0.5625H130.627C135.904 0.5625 140.18 4.8386 140.18 10.1157C140.18 15.391 135.904 19.6688 130.627 19.6688" fill="white"/>
</g>
<path fill-rule="evenodd" clip-rule="evenodd" d="M27.8645 12.9597H23.1195C21.5943 12.9597 20.3527 11.7172 20.3527 10.192C20.3527 8.66599 21.5943 7.42531 23.1195 7.42531H27.8645V4.24414H23.1195C19.84 4.24414 17.1725 6.91341 17.1725 10.192C17.1725 13.4716 19.84 16.1391 23.1195 16.1391H27.8645V12.9597ZM35.3674 7.42531C33.8413 7.42531 32.5998 8.66599 32.5998 10.1912C32.5998 11.7172 33.8413 12.9597 35.3665 12.9597C36.8926 12.9597 38.1341 11.7172 38.1341 10.192C38.1341 8.66599 36.8926 7.42619 35.3665 7.42619M35.3665 16.1399C32.087 16.1399 29.4195 13.4724 29.4195 10.192C29.4195 6.91253 32.087 4.24502 35.3665 4.24502C38.646 4.24502 41.3144 6.91253 41.3144 10.192C41.3144 13.4724 38.646 16.1399 35.3665 16.1399ZM57.3634 4.24502C55.6389 4.24502 54.0935 4.98873 53.0056 6.15916C51.9186 4.98873 50.3724 4.24502 48.6488 4.24502C45.3666 4.24502 42.7017 6.91604 42.7017 10.192V16.2155H45.882V10.192C45.882 8.66599 47.1218 7.42531 48.6479 7.42531C50.1757 7.42531 51.4155 8.66599 51.4155 10.192V16.2155H54.5958V10.192C54.5958 8.66599 55.8365 7.42531 57.3634 7.42531C58.8894 7.42531 60.1301 8.66599 60.1301 10.192V16.2155H63.3104V10.192C63.3104 6.91692 60.6455 4.24502 57.3634 4.24502ZM80.1988 4.24502C78.4752 4.24502 76.9289 4.98873 75.841 6.15916C74.754 4.98873 73.2078 4.24502 71.4842 4.24502C68.202 4.24502 65.5371 6.91604 65.5371 10.192V16.2155H68.7166V10.192C68.7166 8.66599 69.9572 7.42531 71.4842 7.42531C73.0111 7.42531 74.2509 8.66599 74.2509 10.192V16.2155H77.4321V10.192C77.4321 8.66599 78.6719 7.42531 80.1979 7.42531C81.7257 7.42531 82.9655 8.66599 82.9655 10.192V16.2155H86.1458V10.192C86.1458 6.91692 83.4809 4.24502 80.1988 4.24502ZM111.252 5.65077L108.988 7.91438C108.542 7.6097 108.001 7.42531 107.423 7.42531C105.897 7.42531 104.656 8.66599 104.656 10.192V16.2155H101.476V10.192C101.476 6.91692 104.141 4.24502 107.423 4.24502C108.879 4.24502 110.215 4.77975 111.252 5.65077ZM121.614 12.9597H116.869C115.344 12.9597 114.102 11.7172 114.102 10.192C114.102 8.66599 115.344 7.42531 116.869 7.42531H121.614V4.24414H116.869C113.589 4.24414 110.921 6.91341 110.921 10.192C110.921 13.4716 113.59 16.1391 116.869 16.1391H121.614V12.9597ZM93.9113 7.42531C95.1089 7.42531 96.1205 8.1936 96.5059 9.26043H91.3184C91.703 8.1936 92.7145 7.42531 93.9113 7.42531ZM99.8592 10.1929C99.8592 6.91253 97.1908 4.24502 93.9113 4.24502C90.6318 4.24502 87.9643 6.91253 87.9643 10.1929C87.9643 13.4724 90.6318 16.1399 93.9113 16.1399C95.7359 16.1399 97.3699 15.3119 98.4622 14.0151L96.0089 11.9771C95.5006 12.5724 94.7542 12.9597 93.9113 12.9597C92.7795 12.9597 91.8075 12.2748 91.379 11.2993H99.7494L99.7617 11.2308C99.8232 10.8936 99.8592 10.5477 99.8592 10.1929ZM128.865 7.42531C130.061 7.42531 131.074 8.1936 131.458 9.26043H126.271C126.655 8.1936 127.667 7.42531 128.865 7.42531ZM134.812 10.1929C134.812 6.91253 132.144 4.24502 128.865 4.24502C125.585 4.24502 122.917 6.91253 122.917 10.1929C122.917 13.4724 125.585 16.1399 128.865 16.1399C130.689 16.1399 132.322 15.3119 133.415 14.0151L130.961 11.9771C130.454 12.5724 129.707 12.9597 128.865 12.9597C127.732 12.9597 126.76 12.2748 126.331 11.2993H134.702L134.715 11.2308C134.775 10.8936 134.812 10.5477 134.812 10.1929ZM10.5414 8.55712C11.5837 8.55712 12.4635 9.22531 12.798 10.1534H8.28485C8.61938 9.22531 9.49919 8.55712 10.5414 8.55712ZM15.7167 10.9647C15.7167 8.11107 13.3951 5.78951 10.5414 5.78951C7.68777 5.78951 5.36621 8.11107 5.36621 10.9647C5.36621 13.8184 7.68777 16.1391 10.5414 16.1391C12.1289 16.1391 13.5505 15.4191 14.5006 14.2908L12.3669 12.5171C11.9244 13.036 11.2746 13.3723 10.5414 13.3723C9.55626 13.3723 8.70982 12.777 8.33753 11.9279H15.6201L15.6324 11.8691C15.6842 11.575 15.7167 11.2738 15.7167 10.9647Z" fill="#191919"/>
</g>
<defs>
<clipPath id="clip0_547_1364">
<rect width="140.488" height="36" fill="white"/>
</clipPath>
</defs>
</svg>
