<svg width="187" height="34" viewBox="0 0 187 34" fill="none" xmlns="http://www.w3.org/2000/svg">
<g clip-path="url(#clip0_547_1415)">
<path d="M85.9473 17.064C85.9473 15.15 87.1963 13.582 89.2433 13.582C91.1993 13.582 92.5153 15.086 92.5153 17.064C92.5153 19.041 91.1993 20.545 89.2433 20.545C87.1963 20.545 85.9473 18.977 85.9473 17.064ZM94.7443 17.064V11.609H92.3793V12.932C91.5623 11.884 90.2893 11.295 88.9613 11.35C85.9163 11.35 83.5153 13.741 83.5153 17.064C83.5153 20.386 85.9023 22.777 88.9613 22.777C90.2963 22.833 91.5753 22.238 92.3923 21.182V22.5H94.7573L94.7443 17.064ZM174.582 17.064C174.582 15.15 175.83 13.582 177.877 13.582C179.833 13.582 181.149 15.086 181.149 17.064C181.149 19.041 179.833 20.545 177.877 20.545C175.83 20.545 174.582 18.973 174.582 17.064ZM186.015 21.982V22.155H186.174C186.202 22.163 186.232 22.163 186.26 22.155C186.281 22.141 186.293 22.116 186.292 22.091C186.292 22.066 186.281 22.041 186.26 22.027C186.232 22.019 186.202 22.019 186.174 22.027L186.015 21.982ZM186.174 21.864C186.242 21.859 186.309 21.878 186.364 21.918C186.41 21.954 186.436 22.01 186.433 22.068C186.435 22.118 186.415 22.166 186.378 22.2C186.336 22.237 186.284 22.26 186.228 22.264L186.438 22.504H186.274L186.079 22.264H186.015V22.504H185.879V21.868L186.174 21.864ZM186.133 22.727C186.275 22.731 186.411 22.675 186.51 22.573C186.636 22.446 186.692 22.265 186.658 22.09C186.624 21.914 186.506 21.766 186.342 21.695C186.276 21.667 186.205 21.654 186.133 21.655C186.06 21.654 185.988 21.667 185.92 21.695C185.755 21.765 185.636 21.912 185.601 22.088C185.566 22.264 185.621 22.446 185.747 22.573C185.852 22.676 185.995 22.731 186.142 22.727H186.133ZM186.133 21.5C186.318 21.5 186.496 21.573 186.628 21.704C186.759 21.832 186.833 22.007 186.833 22.19C186.833 22.374 186.759 22.549 186.628 22.677C186.497 22.809 186.318 22.882 186.133 22.882C185.85 22.885 185.593 22.719 185.48 22.459C185.388 22.241 185.414 21.992 185.548 21.798C185.682 21.603 185.906 21.491 186.142 21.499L186.133 21.5ZM183.369 17.064V7.25H181.004V12.941C180.187 11.884 178.908 11.289 177.574 11.345C174.527 11.345 172.127 13.736 172.127 17.059C172.127 20.382 174.514 22.773 177.573 22.773C178.908 22.829 180.187 22.233 181.004 21.177V22.495H183.369V17.064ZM124.069 13.468C125.594 13.468 126.569 14.423 126.819 16.109H121.187C121.437 14.536 122.39 13.469 124.074 13.469H124.069V13.468ZM124.114 11.35C120.937 11.35 118.704 13.673 118.704 17.064C118.704 20.523 121.024 22.777 124.274 22.777C125.897 22.834 127.484 22.29 128.73 21.25L127.573 19.495C126.671 20.218 125.553 20.619 124.396 20.632C122.871 20.632 121.486 19.927 121.146 17.968H129.216C129.239 17.673 129.261 17.378 129.261 17.059C129.261 13.669 127.146 11.346 124.101 11.346L124.114 11.35ZM152.646 17.064C152.646 15.15 153.894 13.582 155.941 13.582C157.897 13.582 159.213 15.086 159.213 17.064C159.213 19.041 157.897 20.545 155.941 20.545C153.894 20.545 152.646 18.973 152.646 17.064ZM161.442 17.064V11.609H159.077V12.932C158.26 11.875 156.981 11.28 155.646 11.336C152.6 11.336 150.199 13.727 150.199 17.05C150.199 20.373 152.587 22.764 155.646 22.764C156.981 22.82 158.26 22.224 159.077 21.168V22.486H161.442V17.064ZM139.302 17.064C139.302 20.364 141.598 22.777 145.097 22.777C146.517 22.847 147.911 22.384 149.005 21.477L147.871 19.564C147.054 20.187 146.057 20.53 145.029 20.541C143.141 20.541 141.757 19.15 141.757 17.059C141.757 14.969 143.146 13.6 145.029 13.577C146.057 13.588 147.054 13.931 147.871 14.555L149.005 12.641C147.911 11.734 146.516 11.271 145.097 11.341C141.598 11.341 139.301 13.755 139.301 17.055V17.064H139.302ZM169.752 11.35C168.577 11.316 167.478 11.928 166.889 12.945V11.623H164.546V22.505H166.911V16.405C166.911 14.586 167.683 13.605 169.231 13.605C169.737 13.597 170.241 13.69 170.711 13.877L171.436 11.645C170.896 11.451 170.326 11.352 169.752 11.35ZM106.427 12.486C105.088 11.69 103.549 11.296 101.992 11.35C99.2423 11.35 97.4533 12.673 97.4533 14.832C97.4533 16.609 98.7703 17.7 101.203 18.041L102.314 18.2C103.608 18.382 104.225 18.723 104.225 19.336C104.225 20.177 103.363 20.659 101.747 20.659C100.443 20.701 99.1643 20.3 98.1163 19.523L97.0403 21.363C98.4173 22.327 100.067 22.823 101.747 22.777C104.883 22.777 106.703 21.295 106.703 19.227C106.703 17.314 105.269 16.314 102.909 15.973L101.797 15.813C100.776 15.677 99.9543 15.473 99.9543 14.745C99.9543 13.95 100.726 13.473 102.024 13.473C103.214 13.491 104.379 13.811 105.41 14.405L106.427 12.486ZM136.914 11.35C135.739 11.316 134.64 11.928 134.05 12.945V11.623H131.708V22.505H134.073V16.405C134.073 14.586 134.844 13.605 136.392 13.605C136.898 13.597 137.402 13.69 137.872 13.877L138.598 11.645C138.058 11.451 137.488 11.352 136.914 11.35ZM116.748 11.623H112.885V8.323H110.498V11.623H108.292V13.786H110.498V18.746C110.498 21.273 111.474 22.777 114.27 22.777C115.314 22.781 116.338 22.489 117.224 21.937L116.544 19.909C115.91 20.287 115.189 20.499 114.451 20.523C113.271 20.523 112.881 19.795 112.881 18.705V13.786H116.743L116.748 11.623ZM81.4223 22.505V15.686C81.4223 13.114 79.7843 11.382 77.1473 11.359C75.6173 11.259 74.1533 12.002 73.3293 13.295C72.5783 12.04 71.2003 11.297 69.7393 11.359C68.4693 11.298 67.2593 11.913 66.5623 12.977V11.614H64.1973V22.504H66.5853V16.473C66.5853 14.582 67.6293 13.582 69.2453 13.582C70.8603 13.582 71.6093 14.605 71.6093 16.45V22.505H73.9833V16.473C73.9833 14.582 75.0733 13.582 76.6433 13.582C78.2133 13.582 79.0303 14.605 79.0303 16.45V22.505H81.4223Z" fill="#231F20"/>
<path d="M19.7256 29.86H34.0226V4.12598H19.7256V29.86Z" fill="#FF5F00"/>
<path d="M20.6339 17.0002C20.6289 11.9812 22.9299 7.23917 26.8739 4.13617C19.7789 -1.44783 9.50693 -0.213833 3.93093 6.89117C-1.64507 13.9972 -0.414069 24.2842 6.68093 29.8682C12.6039 34.5322 20.9509 34.5322 26.8739 29.8682C22.9279 26.7642 20.6279 22.0202 20.6339 17.0002Z" fill="#EB001B"/>
<path d="M53.313 16.9998C53.313 26.0368 45.997 33.3638 36.973 33.3628C33.309 33.3628 29.753 32.1298 26.874 29.8628C33.97 24.2798 35.201 13.9928 29.625 6.88579C28.821 5.86179 27.898 4.93679 26.875 4.13179C33.969 -1.45421 44.241 -0.222213 49.819 6.88179C52.084 9.76779 53.315 13.3318 53.313 16.9998ZM52.791 27.4878V26.4948H52.651L52.46 27.2048L52.27 26.4948H52.1V27.4878H52.196V26.7438L52.373 27.3888H52.495L52.672 26.7438V27.4948L52.791 27.4878ZM51.743 27.4878V26.6658H51.956V26.5028H51.425V26.6728H51.638V27.4948L51.743 27.4878Z" fill="#F79E1B"/>
</g>
<defs>
<clipPath id="clip0_547_1415">
<rect width="187" height="34" fill="white"/>
</clipPath>
</defs>
</svg>
