<svg width="131" height="51" viewBox="0 0 131 51" fill="none" xmlns="http://www.w3.org/2000/svg">
<path d="M89.4363 28.4659L90.7461 28.8588C90.6588 29.2299 90.5278 29.5355 90.3314 29.7756C90.1349 30.0158 89.9166 30.2122 89.6328 30.3214C89.349 30.4524 88.9997 30.5178 88.5631 30.5178C88.0392 30.5178 87.6245 30.4524 87.2752 30.2995C86.9478 30.1467 86.664 29.8848 86.4238 29.4918C86.1837 29.1207 86.0527 28.6187 86.0527 28.0293C86.0527 27.2434 86.271 26.6322 86.6858 26.1956C87.1006 25.759 87.7118 25.5625 88.4758 25.5625C89.0871 25.5625 89.5455 25.6935 89.8948 25.9336C90.244 26.1737 90.506 26.5448 90.6588 27.0687L89.349 27.3525C89.3054 27.1997 89.2617 27.0906 89.1962 27.0251C89.1089 26.9159 89.0216 26.8286 88.8906 26.7631C88.7596 26.6976 88.6286 26.6758 88.4977 26.6758C88.1702 26.6758 87.9083 26.8068 87.7336 27.0906C87.6026 27.287 87.5372 27.6145 87.5372 28.0293C87.5372 28.5532 87.6245 28.9243 87.7773 29.1207C87.9301 29.3172 88.1702 29.4264 88.454 29.4264C88.7378 29.4264 88.9561 29.339 89.0871 29.1862C89.2617 28.9898 89.3708 28.7715 89.4363 28.4659Z" fill="#225E63"/>
<path d="M91.2705 28.0294C91.2705 27.2435 91.4888 26.6323 91.9254 26.1957C92.362 25.7591 92.9732 25.5408 93.7591 25.5408C94.5668 25.5408 95.178 25.7591 95.6146 26.1738C96.0512 26.6104 96.2695 27.1998 96.2695 27.9857C96.2695 28.5533 96.1822 29.0117 95.9857 29.361C95.7893 29.7102 95.5273 29.994 95.1562 30.1905C94.8069 30.387 94.3485 30.4961 93.8246 30.4961C93.2788 30.4961 92.8422 30.4088 92.4711 30.2342C92.1219 30.0595 91.8381 29.7976 91.598 29.4046C91.3578 29.0117 91.2705 28.5969 91.2705 28.0294ZM92.7549 28.0294C92.7549 28.5096 92.8422 28.8589 93.0169 29.0772C93.1915 29.2955 93.4316 29.4046 93.7591 29.4046C94.0865 29.4046 94.3267 29.2955 94.5013 29.099C94.6759 28.8807 94.7633 28.5096 94.7633 27.9857C94.7633 27.5273 94.6759 27.1998 94.4795 27.0034C94.3048 26.7851 94.0429 26.6977 93.7373 26.6977C93.4317 26.6977 93.1915 26.8069 93.0169 27.0252C92.8422 27.1998 92.7549 27.5491 92.7549 28.0294Z" fill="#225E63"/>
<path d="M97.0329 25.6277H98.9758L99.718 28.5529L100.46 25.6277H102.403V30.4302H101.181V26.7628L100.242 30.4302H99.1504L98.2117 26.7628V30.4302H96.9893V25.6277H97.0329Z" fill="#225E63"/>
<path d="M103.363 25.6277H105.83C106.376 25.6277 106.769 25.7587 107.031 26.0206C107.293 26.2826 107.424 26.6318 107.424 27.1121C107.424 27.5924 107.271 27.9853 106.987 28.2472C106.703 28.531 106.245 28.662 105.655 28.662H104.848V30.452H103.363V25.6277ZM104.848 27.6797H105.219C105.503 27.6797 105.699 27.636 105.83 27.5269C105.939 27.4177 106.005 27.3086 106.005 27.1558C106.005 27.003 105.961 26.872 105.852 26.7628C105.743 26.6537 105.568 26.61 105.284 26.61H104.87V27.6797H104.848Z" fill="#225E63"/>
<path d="M108.21 25.6277H109.694V29.2514H112.008V30.4302H108.21V25.6277Z" fill="#225E63"/>
<path d="M112.75 25.6277H114.234V30.4302H112.75V25.6277Z" fill="#225E63"/>
<path d="M118.251 29.6226H116.571L116.33 30.4085H114.824L116.636 25.606H118.251L120.063 30.4085H118.513L118.251 29.6226ZM117.946 28.5966L117.422 26.8721L116.898 28.5966H117.946Z" fill="#225E63"/>
<path d="M120.521 25.6277H121.897L123.709 28.2909V25.6277H125.106V30.4302H123.709L121.919 27.7888V30.4302H120.521V25.6277Z" fill="#225E63"/>
<path d="M125.761 25.6277H130.279V26.8065H128.773V30.4302H127.289V26.8065H125.783V25.6277H125.761Z" fill="#225E63"/>
<path d="M71.5796 32.941L75.88 31.5876L74.4829 28.4877C73.4569 29.7757 72.4309 31.4348 71.5796 32.941ZM70.117 18.7735L61.6907 0L0 3.49275L17.0926 50.121L49.99 39.7519C47.8943 36.7394 47.1303 33.1593 49.5534 31.4129C52.2603 29.4483 56.3424 31.7185 58.9402 34.9275C61.4506 30.7362 68.5016 20.9783 70.117 18.7735Z" fill="#225E63"/>
<path d="M59.7692 13.567C62.3451 13.567 64.4408 11.6023 64.4408 9.1574C64.4408 6.71247 62.3451 4.7478 59.7692 4.7478C57.1933 4.7478 55.0977 6.71247 55.0977 9.1574C55.0977 11.5805 57.1933 13.567 59.7692 13.567ZM55.949 15.4662H63.5894V35.4404H55.949V15.4662Z" fill="#FEFEFE"/>
<path d="M52.1723 21.2947C52.2378 21.3165 52.2815 21.2947 52.2815 21.2292V16.1647C52.2815 16.0992 52.2378 16.0338 52.1723 15.9901C52.1723 15.9901 51.1682 15.3352 48.112 15.1606C47.9592 15.0733 45.2741 15.0514 44.5538 15.1606C33.4206 16.0556 33.0059 24.1107 33.0059 24.46V26.4247C33.0059 26.6648 33.0059 34.8946 44.5538 35.615C45.6889 35.7023 47.8937 35.615 48.112 35.615C50.7752 35.615 52.6089 34.8073 52.6089 34.8073C52.6744 34.7855 52.7181 34.72 52.7181 34.6545V29.9174C52.7181 29.852 52.6744 29.8301 52.6308 29.8738C52.6308 29.8738 51.8012 30.5287 48.1775 30.8998C47.1515 31.0089 46.6494 30.9653 46.2783 30.8998C41.1265 30.0266 40.8864 26.2719 40.8864 26.2719C40.8864 26.2064 40.8645 26.0972 40.8645 26.0536V24.6128C40.8645 24.5473 40.8645 24.4382 40.8864 24.3945C40.8864 24.3945 41.2357 20.356 46.2783 19.9194H48.1775C50.3823 20.2032 52.1723 21.2947 52.1723 21.2947Z" fill="#FEFEFE"/>
<path d="M11.7871 35.3749C11.7871 35.4403 11.8308 35.484 11.8963 35.484H19.3402C19.4057 35.484 19.4493 35.4403 19.4493 35.3749V29.5682C19.4493 29.5027 19.493 29.459 19.5585 29.459C19.5585 29.459 31.4557 30.3104 31.4557 22.3425C31.4557 16.0337 23.9899 15.357 21.545 15.4662C21.5013 15.4662 11.8963 15.4662 11.8963 15.4662C11.8308 15.4662 11.7871 15.5098 11.7871 15.5753V35.3749ZM19.3184 25.0276V19.8103H21.152C21.152 19.8103 23.7934 19.9194 24.0117 21.7313C24.0554 21.8623 24.0554 22.7573 24.0117 22.8009C23.6625 24.9184 21.3703 25.0276 21.3703 25.0276H19.3184Z" fill="#FEFEFE"/>
<path d="M59.9884 45.0784C60.5996 45.0784 61.0798 45.0784 61.8657 44.7291C64.5726 43.3102 73.7192 20.9784 83.368 14.1021C83.4335 14.0584 83.4989 13.9929 83.5426 13.9274C83.6081 13.8401 83.6081 13.7528 83.6081 13.7528C83.6081 13.7528 83.6081 13.2944 82.1892 13.2944C73.6101 13.0542 64.6817 31.0637 59.9884 38.1802C59.9229 38.2675 59.6173 38.1802 59.6173 38.1802C59.6173 38.1802 56.4738 34.4692 53.7451 33.0502C53.6796 33.0284 53.374 32.9193 53.0465 32.9411C52.8282 32.9411 51.5621 33.2031 50.9727 33.8143C50.2741 34.5565 50.296 34.9713 50.296 35.8663C50.296 35.9318 50.3396 36.2374 50.427 36.3902C51.1037 37.569 54.138 41.7603 56.6484 44.0742C57.0195 44.358 57.6089 45.0784 59.9884 45.0784Z" fill="#2BBC5D"/>
<path d="M85.8994 7.35645H93.0377C94.4567 7.35645 95.5918 7.55291 96.4432 7.92402C97.3163 8.31695 98.0367 8.8627 98.5825 9.56125C99.15 10.2816 99.5648 11.1112 99.8049 12.0498C100.067 12.9885 100.198 13.9927 100.198 15.0623C100.198 16.7214 100.001 18.0093 99.6303 18.9262C99.2592 19.843 98.7353 20.6071 98.0586 21.2401C97.3818 21.8514 96.6615 22.2661 95.8974 22.4844C94.8496 22.7682 93.8891 22.8992 93.0377 22.8992H85.8994V7.35645ZM90.7019 10.871V19.3628H91.8808C92.8849 19.3628 93.6053 19.2536 94.0201 19.0353C94.4348 18.817 94.7841 18.4241 95.0242 17.8784C95.2644 17.3326 95.3953 16.4158 95.3953 15.1715C95.3953 13.5124 95.1334 12.3991 94.5876 11.7879C94.0419 11.1766 93.1687 10.871 91.9026 10.871H90.7019Z" fill="#225E63"/>
<path d="M101.529 17.7693L106.114 17.4855C106.223 18.2277 106.419 18.7953 106.725 19.1882C107.227 19.8213 107.925 20.1269 108.842 20.1269C109.519 20.1269 110.065 19.9741 110.436 19.6467C110.807 19.3192 111.003 18.9481 111.003 18.5333C111.003 18.1404 110.829 17.7693 110.479 17.4419C110.13 17.1144 109.301 16.8306 108.013 16.5468C105.895 16.0666 104.411 15.4335 103.494 14.6477C102.577 13.8618 102.141 12.8576 102.141 11.6352C102.141 10.8275 102.381 10.0853 102.839 9.36487C103.298 8.64449 103.996 8.09875 104.935 7.68399C105.873 7.26922 107.14 7.07275 108.755 7.07275C110.741 7.07275 112.27 7.44386 113.295 8.18607C114.343 8.92828 114.955 10.1071 115.151 11.7225L110.61 11.9844C110.479 11.2859 110.239 10.7838 109.846 10.4564C109.453 10.1289 108.93 9.9761 108.253 9.9761C107.685 9.9761 107.271 10.0853 106.987 10.3254C106.703 10.5655 106.572 10.8493 106.572 11.1986C106.572 11.4387 106.681 11.6788 106.921 11.8753C107.14 12.0718 107.685 12.2682 108.537 12.4429C110.632 12.9013 112.139 13.3597 113.055 13.8181C113.972 14.2766 114.627 14.866 115.042 15.5427C115.457 16.2194 115.653 17.0053 115.653 17.8566C115.653 18.8608 115.369 19.7776 114.824 20.6072C114.278 21.4585 113.492 22.0916 112.51 22.5282C111.527 22.9648 110.261 23.1831 108.755 23.1831C106.114 23.1831 104.28 22.681 103.254 21.655C102.25 20.629 101.682 19.341 101.529 17.7693Z" fill="#225E63"/>
<path d="M116.876 17.7693L121.46 17.4855C121.569 18.2277 121.766 18.7953 122.071 19.1882C122.574 19.8213 123.272 20.1269 124.189 20.1269C124.866 20.1269 125.411 19.9741 125.782 19.6467C126.154 19.3192 126.35 18.9481 126.35 18.5333C126.35 18.1404 126.175 17.7693 125.826 17.4419C125.477 17.1144 124.647 16.8306 123.359 16.5468C121.242 16.0666 119.757 15.4335 118.841 14.6477C117.946 13.8618 117.487 12.8576 117.487 11.6352C117.487 10.8275 117.727 10.0853 118.186 9.36487C118.644 8.64449 119.343 8.09875 120.281 7.68399C121.22 7.26922 122.486 7.07275 124.102 7.07275C126.088 7.07275 127.616 7.44386 128.642 8.18607C129.69 8.92828 130.301 10.1071 130.498 11.7225L125.957 11.9844C125.826 11.2859 125.586 10.7838 125.193 10.4564C124.8 10.1289 124.276 9.9761 123.6 9.9761C123.032 9.9761 122.617 10.0853 122.333 10.3254C122.05 10.5655 121.919 10.8493 121.919 11.1986C121.919 11.4387 122.028 11.6788 122.268 11.8753C122.486 12.0718 123.032 12.2682 123.883 12.4429C125.979 12.9013 127.485 13.3597 128.402 13.8181C129.319 14.2766 129.974 14.866 130.389 15.5427C130.803 16.2194 131 17.0053 131 17.8566C131 18.8608 130.716 19.7776 130.17 20.6072C129.625 21.4585 128.839 22.0916 127.856 22.5282C126.874 22.9648 125.608 23.1831 124.102 23.1831C121.46 23.1831 119.627 22.681 118.601 21.655C117.575 20.629 117.007 19.341 116.876 17.7693Z" fill="#225E63"/>
</svg>
