<svg
  width="355"
  height="334"
  viewBox="0 0 355 334"
  fill="none"
  xmlns="http://www.w3.org/2000/svg"
>
    <path
      d="M46 113.558L172 313L302 50"
      stroke="white"
      stroke-width="1.5"
      stroke-dasharray="4 4"
    />
    <g clip-path="url(#clip0_825_2522)">
      <rect
        x="41.2861"
        y="165.464"
        width="273.429"
        height="172.071"
        rx="12"
        fill="url(#paint0_linear_825_2522)"
      />
      <path
        d="M61.7614 312.367C61.3069 312.367 60.9062 312.271 60.5594 312.079C60.2125 311.887 59.9583 311.608 59.7969 311.242L60.5056 310.828C60.6909 311.308 61.1096 311.548 61.7614 311.548C62.1621 311.548 62.4761 311.452 62.7034 311.26C62.9306 311.068 63.0442 310.783 63.0442 310.405V305.95H63.8695V310.405C63.8695 311.035 63.6692 311.521 63.2685 311.863C62.8738 312.199 62.3714 312.367 61.7614 312.367Z"
        fill="white"
      />
      <path
        d="M68.7203 307.75H69.5007V312.25H68.7203V311.476C68.3315 312.07 67.7664 312.367 67.0248 312.367C66.3969 312.367 65.8616 312.139 65.4191 311.683C64.9765 311.221 64.7552 310.66 64.7552 310C64.7552 309.34 64.9765 308.782 65.4191 308.326C65.8616 307.864 66.3969 307.633 67.0248 307.633C67.7664 307.633 68.3315 307.93 68.7203 308.524V307.75ZM67.1235 311.611C67.578 311.611 67.9577 311.458 68.2627 311.152C68.5678 310.84 68.7203 310.456 68.7203 310C68.7203 309.544 68.5678 309.163 68.2627 308.857C67.9577 308.545 67.578 308.389 67.1235 308.389C66.675 308.389 66.2982 308.545 65.9932 308.857C65.6882 309.163 65.5357 309.544 65.5357 310C65.5357 310.456 65.6882 310.84 65.9932 311.152C66.2982 311.458 66.675 311.611 67.1235 311.611Z"
        fill="white"
      />
      <path
        d="M72.7912 312.367C72.1154 312.367 71.5533 312.142 71.1048 311.692C70.6562 311.236 70.432 310.672 70.432 310C70.432 309.328 70.6562 308.767 71.1048 308.317C71.5533 307.861 72.1154 307.633 72.7912 307.633C73.2338 307.633 73.6315 307.741 73.9843 307.957C74.3372 308.167 74.6003 308.452 74.7737 308.812L74.1189 309.19C74.0052 308.95 73.8288 308.758 73.5896 308.614C73.3564 308.47 73.0902 308.398 72.7912 308.398C72.3427 308.398 71.9659 308.551 71.6609 308.857C71.3619 309.163 71.2124 309.544 71.2124 310C71.2124 310.45 71.3619 310.828 71.6609 311.134C71.9659 311.44 72.3427 311.593 72.7912 311.593C73.0902 311.593 73.3594 311.524 73.5986 311.386C73.8378 311.242 74.0202 311.05 74.1458 310.81L74.8096 311.197C74.6182 311.551 74.3431 311.836 73.9843 312.052C73.6255 312.262 73.2278 312.367 72.7912 312.367Z"
        fill="white"
      />
      <path
        d="M79.3747 312.25H78.4059L76.3606 310.117V312.25H75.5802V305.95H76.3606V309.739L78.2983 307.75H79.303L77.159 309.928L79.3747 312.25Z"
        fill="white"
      />
      <path
        d="M83.2582 311.458H85.9673V312.25H82.4239V305.95H83.2582V311.458Z"
        fill="white"
      />
      <path
        d="M87.0954 310.36C87.1731 310.762 87.3555 311.074 87.6426 311.296C87.9356 311.518 88.2944 311.629 88.719 311.629C89.3111 311.629 89.7417 311.41 90.0108 310.972L90.6746 311.35C90.2381 312.028 89.5802 312.367 88.7011 312.367C87.9894 312.367 87.4093 312.145 86.9608 311.701C86.5182 311.251 86.297 310.684 86.297 310C86.297 309.322 86.5153 308.758 86.9518 308.308C87.3884 307.858 87.9535 307.633 88.6473 307.633C89.3051 307.633 89.8404 307.867 90.253 308.335C90.6716 308.797 90.881 309.355 90.881 310.009C90.881 310.123 90.872 310.24 90.854 310.36H87.0954ZM88.6473 308.371C88.2286 308.371 87.8818 308.491 87.6067 308.731C87.3316 308.965 87.1611 309.28 87.0954 309.676H90.0915C90.0258 309.25 89.8583 308.926 89.5892 308.704C89.3201 308.482 89.0061 308.371 88.6473 308.371Z"
        fill="white"
      />
      <path
        d="M96.8866 307.75H97.7029L96.3125 312.25H95.5141L94.4645 308.92L93.4149 312.25H92.6166L91.2261 307.75H92.0424L93.0292 311.17L94.0877 307.75H94.8413L95.8998 311.179L96.8866 307.75Z"
        fill="white"
      />
      <path
        d="M98.9007 306.931C98.7512 306.931 98.6257 306.88 98.524 306.778C98.4223 306.676 98.3715 306.553 98.3715 306.409C98.3715 306.265 98.4223 306.142 98.524 306.04C98.6257 305.932 98.7512 305.878 98.9007 305.878C99.0443 305.878 99.1669 305.932 99.2685 306.04C99.3702 306.142 99.421 306.265 99.421 306.409C99.421 306.553 99.3702 306.676 99.2685 306.778C99.1669 306.88 99.0443 306.931 98.9007 306.931ZM98.506 312.25V307.75H99.2865V312.25H98.506Z"
        fill="white"
      />
      <path
        d="M101.141 308.965C101.141 309.139 101.228 309.28 101.401 309.388C101.575 309.49 101.784 309.574 102.029 309.64C102.274 309.7 102.52 309.772 102.765 309.856C103.01 309.934 103.219 310.072 103.393 310.27C103.566 310.462 103.653 310.711 103.653 311.017C103.653 311.425 103.494 311.752 103.177 311.998C102.867 312.244 102.466 312.367 101.975 312.367C101.539 312.367 101.165 312.271 100.854 312.079C100.543 311.887 100.322 311.632 100.19 311.314L100.863 310.927C100.935 311.143 101.069 311.314 101.267 311.44C101.464 311.566 101.7 311.629 101.975 311.629C102.233 311.629 102.445 311.581 102.612 311.485C102.78 311.383 102.864 311.227 102.864 311.017C102.864 310.843 102.777 310.705 102.603 310.603C102.43 310.495 102.221 310.411 101.975 310.351C101.73 310.285 101.485 310.21 101.24 310.126C100.995 310.042 100.785 309.904 100.612 309.712C100.438 309.52 100.352 309.274 100.352 308.974C100.352 308.584 100.501 308.263 100.8 308.011C101.105 307.759 101.485 307.633 101.94 307.633C102.304 307.633 102.627 307.717 102.908 307.885C103.195 308.047 103.411 308.275 103.554 308.569L102.899 308.938C102.738 308.554 102.418 308.362 101.94 308.362C101.718 308.362 101.53 308.416 101.374 308.524C101.219 308.626 101.141 308.773 101.141 308.965Z"
        fill="white"
      />
      <path
        d="M273.918 311.476C273.494 312.07 272.898 312.367 272.133 312.367C271.368 312.367 270.772 312.07 270.348 311.476C269.923 310.882 269.711 310.09 269.711 309.1C269.711 308.11 269.923 307.318 270.348 306.724C270.772 306.13 271.368 305.833 272.133 305.833C272.898 305.833 273.494 306.13 273.918 306.724C274.343 307.318 274.555 308.11 274.555 309.1C274.555 310.09 274.343 310.882 273.918 311.476ZM270.958 310.909C271.233 311.335 271.625 311.548 272.133 311.548C272.641 311.548 273.033 311.335 273.308 310.909C273.589 310.483 273.73 309.88 273.73 309.1C273.73 308.32 273.589 307.717 273.308 307.291C273.033 306.859 272.641 306.643 272.133 306.643C271.625 306.643 271.233 306.856 270.958 307.282C270.683 307.708 270.545 308.314 270.545 309.1C270.545 309.88 270.683 310.483 270.958 310.909Z"
        fill="white"
      />
      <path
        d="M277.371 308.128C277.999 308.128 278.516 308.326 278.923 308.722C279.329 309.112 279.533 309.619 279.533 310.243C279.533 310.867 279.329 311.377 278.923 311.773C278.516 312.169 277.999 312.367 277.371 312.367C276.737 312.367 276.217 312.169 275.81 311.773C275.409 311.377 275.209 310.867 275.209 310.243C275.209 309.757 275.334 309.337 275.586 308.983L277.604 305.95H278.555L277.075 308.146C277.206 308.134 277.305 308.128 277.371 308.128ZM276.402 311.206C276.653 311.446 276.976 311.566 277.371 311.566C277.765 311.566 278.085 311.446 278.331 311.206C278.582 310.96 278.707 310.639 278.707 310.243C278.707 309.847 278.582 309.529 278.331 309.289C278.085 309.049 277.765 308.929 277.371 308.929C276.97 308.929 276.647 309.049 276.402 309.289C276.157 309.529 276.034 309.847 276.034 310.243C276.034 310.639 276.157 310.96 276.402 311.206Z"
        fill="white"
      />
      <path
        d="M280.592 313.15H280.126L283.714 305.05H284.18L280.592 313.15Z"
        fill="white"
      />
      <path
        d="M284.847 312.25V311.566L287.063 309.298C287.655 308.704 287.951 308.194 287.951 307.768C287.951 307.414 287.843 307.138 287.628 306.94C287.413 306.742 287.149 306.643 286.838 306.643C286.246 306.643 285.816 306.925 285.547 307.489L284.847 307.075C285.044 306.667 285.316 306.358 285.663 306.148C286.016 305.938 286.405 305.833 286.829 305.833C287.356 305.833 287.813 306.007 288.202 306.355C288.591 306.703 288.785 307.171 288.785 307.759C288.785 308.395 288.411 309.088 287.664 309.838L286.058 311.44H288.902V312.25H284.847Z"
        fill="white"
      />
      <path
        d="M292.871 308.992C293.176 309.148 293.415 309.358 293.588 309.622C293.762 309.886 293.849 310.186 293.849 310.522C293.849 311.098 293.648 311.551 293.248 311.881C292.847 312.205 292.33 312.367 291.696 312.367C291.068 312.367 290.553 312.205 290.153 311.881C289.752 311.551 289.552 311.098 289.552 310.522C289.552 310.186 289.638 309.886 289.812 309.622C289.985 309.358 290.224 309.148 290.529 308.992C290.015 308.668 289.758 308.209 289.758 307.615C289.758 307.045 289.946 306.607 290.323 306.301C290.706 305.989 291.163 305.833 291.696 305.833C292.234 305.833 292.691 305.989 293.068 306.301C293.451 306.607 293.642 307.045 293.642 307.615C293.642 308.209 293.385 308.668 292.871 308.992ZM291.696 306.634C291.379 306.634 291.113 306.718 290.897 306.886C290.688 307.054 290.583 307.303 290.583 307.633C290.583 307.951 290.691 308.2 290.906 308.38C291.122 308.554 291.385 308.641 291.696 308.641C292.007 308.641 292.27 308.554 292.485 308.38C292.7 308.2 292.808 307.951 292.808 307.633C292.808 307.303 292.703 307.054 292.494 306.886C292.285 306.718 292.019 306.634 291.696 306.634ZM291.696 311.566C292.096 311.566 292.416 311.473 292.656 311.287C292.901 311.095 293.023 310.822 293.023 310.468C293.023 310.12 292.901 309.853 292.656 309.667C292.416 309.475 292.096 309.379 291.696 309.379C291.301 309.379 290.981 309.475 290.736 309.667C290.497 309.853 290.377 310.12 290.377 310.468C290.377 310.822 290.497 311.095 290.736 311.287C290.981 311.473 291.301 311.566 291.696 311.566Z"
        fill="white"
      />
      <path
        d="M60.4903 197.07L60.4873 197.074L60.4845 197.078C60.3267 197.302 59.9731 197.368 59.6966 197.172C59.4753 197.015 59.4087 196.666 59.5972 196.389C59.8784 196.03 60.0827 195.609 60.2168 195.198C60.3565 194.77 60.4215 194.284 60.419 193.807C60.4164 193.33 60.3463 192.844 60.2022 192.418C60.0637 192.008 59.855 191.59 59.57 191.233C59.3786 190.959 59.4414 190.608 59.6611 190.449C59.9355 190.25 60.2898 190.312 60.45 190.535L60.4528 190.539L60.4558 190.543C60.8105 191.012 61.1015 191.534 61.2754 192.045C61.4584 192.647 61.575 193.23 61.578 193.8C61.5811 194.401 61.5239 194.969 61.3043 195.529C61.0651 196.139 60.8334 196.606 60.4903 197.07Z"
        fill="white"
      />
      <path
        d="M63.0552 198.185L63.0622 198.175L63.0685 198.165C63.8548 196.9 64.3084 195.375 64.3 193.786C64.2916 192.197 63.8222 190.677 63.023 189.421C62.8497 189.146 62.9276 188.82 63.2195 188.608C63.4156 188.466 63.7837 188.516 64.0021 188.81C64.9045 190.247 65.4495 191.984 65.459 193.78C65.4688 195.637 64.9426 197.317 64.0546 198.764C63.8492 199.048 63.5347 199.128 63.2636 198.967C62.9696 198.751 62.9159 198.383 63.0552 198.185Z"
        fill="white"
      />
      <path
        d="M67.6583 186.922L67.6661 186.937L67.6751 186.952C68.8978 188.952 69.5773 191.26 69.5905 193.757C69.6036 196.254 68.9492 198.568 67.7487 200.581C67.5647 200.878 67.2539 200.961 66.9389 200.814C66.6523 200.627 66.5752 200.316 66.725 200.002C67.746 198.183 68.3809 196.039 68.3688 193.764C68.3569 191.499 67.7668 189.359 66.657 187.539C66.5069 187.229 66.5812 186.919 66.8645 186.73C67.2063 186.566 67.5393 186.686 67.6583 186.922Z"
        fill="white"
      />
      <path
        d="M71.279 185.018L71.2843 185.028L71.2902 185.038C72.7719 187.609 73.6424 190.547 73.6593 193.736C73.6761 196.921 72.8384 199.866 71.3867 202.45C71.2023 202.743 70.893 202.826 70.5795 202.679C70.2937 202.492 70.2163 202.183 70.3642 201.87C71.7627 199.475 72.5159 196.7 72.5003 193.742C72.4846 190.776 71.6359 188.012 70.2801 185.64C70.1103 185.294 70.23 184.955 70.4671 184.835C70.8152 184.658 71.1578 184.778 71.279 185.018Z"
        fill="white"
      />
      <path
        d="M83.2008 196.876C82.2559 196.876 81.4755 196.561 80.8595 195.931C80.2435 195.301 79.9355 194.524 79.9355 193.6C79.9355 192.67 80.2435 191.893 80.8595 191.269C81.4755 190.639 82.2559 190.324 83.2008 190.324C83.769 190.324 84.2923 190.459 84.7707 190.729C85.2551 190.993 85.6319 191.353 85.901 191.809L84.8335 192.43C84.678 192.148 84.4567 191.929 84.1697 191.773C83.8826 191.611 83.5597 191.53 83.2008 191.53C82.5908 191.53 82.0975 191.722 81.7207 192.106C81.3499 192.49 81.1645 192.988 81.1645 193.6C81.1645 194.206 81.3499 194.701 81.7207 195.085C82.0975 195.469 82.5908 195.661 83.2008 195.661C83.5597 195.661 83.8826 195.583 84.1697 195.427C84.4627 195.265 84.684 195.046 84.8335 194.77L85.901 195.391C85.6319 195.847 85.2581 196.21 84.7797 196.48C84.3012 196.744 83.775 196.876 83.2008 196.876Z"
        fill="white"
      />
      <path
        d="M87.8349 193.024C87.9426 192.736 88.119 192.52 88.3642 192.376C88.6154 192.232 88.8935 192.16 89.1985 192.16V193.456C88.8456 193.414 88.5287 193.486 88.2476 193.672C87.9725 193.858 87.8349 194.167 87.8349 194.599V196.75H86.6777V192.25H87.8349V193.024Z"
        fill="white"
      />
      <path
        d="M90.6866 194.977C90.8421 195.541 91.2637 195.823 91.9515 195.823C92.394 195.823 92.7289 195.673 92.9562 195.373L93.8891 195.913C93.4466 196.555 92.7947 196.876 91.9335 196.876C91.192 196.876 90.5969 196.651 90.1484 196.201C89.6998 195.751 89.4756 195.184 89.4756 194.5C89.4756 193.822 89.6969 193.258 90.1394 192.808C90.582 192.352 91.1501 192.124 91.8438 192.124C92.5017 192.124 93.0429 192.352 93.4675 192.808C93.8981 193.264 94.1134 193.828 94.1134 194.5C94.1134 194.65 94.0984 194.809 94.0685 194.977H90.6866ZM90.6687 194.077H92.9562C92.8904 193.771 92.7528 193.543 92.5435 193.393C92.3402 193.243 92.107 193.168 91.8438 193.168C91.5328 193.168 91.2757 193.249 91.0724 193.411C90.869 193.567 90.7345 193.789 90.6687 194.077Z"
        fill="white"
      />
      <path
        d="M98.2861 190.45H99.4433V196.75H98.2861V196.219C97.9452 196.657 97.4608 196.876 96.8328 196.876C96.2288 196.876 95.7115 196.648 95.2809 196.192C94.8563 195.73 94.644 195.166 94.644 194.5C94.644 193.834 94.8563 193.273 95.2809 192.817C95.7115 192.355 96.2288 192.124 96.8328 192.124C97.4608 192.124 97.9452 192.343 98.2861 192.781V190.45ZM96.1511 195.418C96.3903 195.652 96.6893 195.769 97.0481 195.769C97.4069 195.769 97.703 195.652 97.9362 195.418C98.1694 195.178 98.2861 194.872 98.2861 194.5C98.2861 194.128 98.1694 193.825 97.9362 193.591C97.703 193.351 97.4069 193.231 97.0481 193.231C96.6893 193.231 96.3903 193.351 96.1511 193.591C95.9178 193.825 95.8012 194.128 95.8012 194.5C95.8012 194.872 95.9178 195.178 96.1511 195.418Z"
        fill="white"
      />
      <path
        d="M101.076 191.71C100.884 191.71 100.717 191.641 100.573 191.503C100.436 191.359 100.367 191.191 100.367 190.999C100.367 190.807 100.436 190.639 100.573 190.495C100.717 190.351 100.884 190.279 101.076 190.279C101.273 190.279 101.441 190.351 101.578 190.495C101.722 190.639 101.793 190.807 101.793 190.999C101.793 191.191 101.722 191.359 101.578 191.503C101.441 191.641 101.273 191.71 101.076 191.71ZM100.502 196.75V192.25H101.659V196.75H100.502Z"
        fill="white"
      />
      <path
        d="M105.284 193.366H104.27V195.238C104.27 195.394 104.309 195.508 104.386 195.58C104.464 195.652 104.578 195.694 104.727 195.706C104.877 195.712 105.062 195.709 105.284 195.697V196.75C104.488 196.84 103.926 196.765 103.597 196.525C103.274 196.285 103.113 195.856 103.113 195.238V193.366H102.332V192.25H103.113V191.341L104.27 190.99V192.25H105.284V193.366Z"
        fill="white"
      />
      <path
        d="M111.444 196.876C110.499 196.876 109.719 196.561 109.103 195.931C108.487 195.301 108.179 194.524 108.179 193.6C108.179 192.67 108.487 191.893 109.103 191.269C109.719 190.639 110.499 190.324 111.444 190.324C112.012 190.324 112.536 190.459 113.014 190.729C113.499 190.993 113.875 191.353 114.144 191.809L113.077 192.43C112.921 192.148 112.7 191.929 112.413 191.773C112.126 191.611 111.803 191.53 111.444 191.53C110.834 191.53 110.341 191.722 109.964 192.106C109.593 192.49 109.408 192.988 109.408 193.6C109.408 194.206 109.593 194.701 109.964 195.085C110.341 195.469 110.834 195.661 111.444 195.661C111.803 195.661 112.126 195.583 112.413 195.427C112.706 195.265 112.927 195.046 113.077 194.77L114.144 195.391C113.875 195.847 113.502 196.21 113.023 196.48C112.545 196.744 112.018 196.876 111.444 196.876Z"
        fill="white"
      />
      <path
        d="M118.286 192.25H119.443V196.75H118.286V196.219C117.939 196.657 117.452 196.876 116.824 196.876C116.226 196.876 115.712 196.648 115.281 196.192C114.856 195.73 114.644 195.166 114.644 194.5C114.644 193.834 114.856 193.273 115.281 192.817C115.712 192.355 116.226 192.124 116.824 192.124C117.452 192.124 117.939 192.343 118.286 192.781V192.25ZM116.151 195.418C116.384 195.652 116.68 195.769 117.039 195.769C117.398 195.769 117.694 195.652 117.927 195.418C118.167 195.178 118.286 194.872 118.286 194.5C118.286 194.128 118.167 193.825 117.927 193.591C117.694 193.351 117.398 193.231 117.039 193.231C116.68 193.231 116.384 193.351 116.151 193.591C115.918 193.825 115.801 194.128 115.801 194.5C115.801 194.872 115.918 195.178 116.151 195.418Z"
        fill="white"
      />
      <path
        d="M121.65 193.024C121.758 192.736 121.934 192.52 122.179 192.376C122.43 192.232 122.708 192.16 123.013 192.16V193.456C122.661 193.414 122.344 193.486 122.063 193.672C121.787 193.858 121.65 194.167 121.65 194.599V196.75H120.493V192.25H121.65V193.024Z"
        fill="white"
      />
      <path
        d="M126.924 190.45H128.081V196.75H126.924V196.219C126.583 196.657 126.098 196.876 125.47 196.876C124.866 196.876 124.349 196.648 123.919 196.192C123.494 195.73 123.282 195.166 123.282 194.5C123.282 193.834 123.494 193.273 123.919 192.817C124.349 192.355 124.866 192.124 125.47 192.124C126.098 192.124 126.583 192.343 126.924 192.781V190.45ZM124.789 195.418C125.028 195.652 125.327 195.769 125.686 195.769C126.045 195.769 126.341 195.652 126.574 195.418C126.807 195.178 126.924 194.872 126.924 194.5C126.924 194.128 126.807 193.825 126.574 193.591C126.341 193.351 126.045 193.231 125.686 193.231C125.327 193.231 125.028 193.351 124.789 193.591C124.555 193.825 124.439 194.128 124.439 194.5C124.439 194.872 124.555 195.178 124.789 195.418Z"
        fill="white"
      />
      <path
        fill-rule="evenodd"
        clip-rule="evenodd"
        d="M268.022 247.355C268.022 245.502 269.495 244 271.311 244H291.045C292.862 244 294.334 245.502 294.334 247.355V261.191C294.334 263.044 292.862 264.546 291.045 264.546H271.311C269.495 264.546 268.022 263.044 268.022 261.191V247.355ZM286.018 244.648H291.045C292.511 244.648 293.699 245.86 293.699 247.355V249.996H286.018V244.648ZM285.383 244.648H271.311C269.846 244.648 268.658 245.86 268.658 247.355V249.996H275.423C276.506 249.996 277.385 250.892 277.385 251.997V263.898H285.383V244.648ZM286.018 263.898H291.045C292.511 263.898 293.699 262.686 293.699 261.191V260.546H286.018V263.898ZM293.699 259.898V255.595H286.018V259.898H293.699ZM293.699 254.947V250.644H286.018V254.947H293.699ZM276.75 263.898V260.546H268.658V261.191C268.658 262.686 269.846 263.898 271.311 263.898H276.75ZM268.658 259.898H276.75V255.595H268.658V259.898ZM268.658 254.947H276.75V251.997C276.75 251.25 276.156 250.644 275.423 250.644H268.658V254.947Z"
        fill="white"
      />
      <path
        d="M285.383 244.648H271.311C269.846 244.648 268.658 245.86 268.658 247.355V249.996H275.423C276.506 249.996 277.385 250.892 277.385 251.997V263.898H285.383V244.648Z"
        fill="white"
        fill-opacity="0.26"
      />
      <path
        d="M276.75 254.947H268.658V250.644H275.423C276.156 250.644 276.75 251.25 276.75 251.997V254.947Z"
        fill="white"
        fill-opacity="0.26"
      />
      <path
        d="M276.75 259.898H268.658V255.595H276.75V259.898Z"
        fill="white"
        fill-opacity="0.26"
      />
      <path
        d="M276.75 260.546V263.898H271.311C269.846 263.898 268.658 262.686 268.658 261.191V260.546H276.75Z"
        fill="white"
        fill-opacity="0.26"
      />
      <path
        d="M291.045 244.648H286.018V249.996H293.699V247.355C293.699 245.86 292.511 244.648 291.045 244.648Z"
        fill="white"
        fill-opacity="0.26"
      />
      <path
        d="M293.699 254.947V250.644H286.018V254.947H293.699Z"
        fill="white"
        fill-opacity="0.26"
      />
      <path
        d="M293.699 259.898V255.595H286.018V259.898H293.699Z"
        fill="white"
        fill-opacity="0.26"
      />
      <path
        d="M286.018 263.898H291.045C292.511 263.898 293.699 262.686 293.699 261.191V260.546H286.018V263.898Z"
        fill="white"
        fill-opacity="0.26"
      />
      <path
        d="M62.1204 248.8H63.1969V258.25H61.9589V250.15L59.954 250.744L59.6445 249.664L62.1204 248.8Z"
        fill="white"
      />
      <path
        d="M66.1497 258.25V257.224L69.4733 253.822C70.3614 252.931 70.8055 252.166 70.8055 251.527C70.8055 250.996 70.644 250.582 70.3211 250.285C69.9981 249.988 69.6034 249.84 69.1369 249.84C68.2489 249.84 67.603 250.263 67.1993 251.109L66.1497 250.488C66.4458 249.876 66.8539 249.412 67.3742 249.097C67.9035 248.782 68.4866 248.625 69.1235 248.625C69.9129 248.625 70.5992 248.886 71.1822 249.408C71.7653 249.93 72.0569 250.632 72.0569 251.514C72.0569 252.468 71.4962 253.507 70.3749 254.632L67.9663 257.035H72.2318V258.25H66.1497Z"
        fill="white"
      />
      <path
        d="M78.2948 252.675C79.0124 252.81 79.6 253.12 80.0575 253.606C80.515 254.092 80.7437 254.709 80.7437 255.456C80.7437 256.374 80.4298 257.098 79.8018 257.629C79.1739 258.16 78.4114 258.426 77.5143 258.426C76.7967 258.426 76.1597 258.264 75.6036 257.94C75.0474 257.607 74.6527 257.13 74.4194 256.509L75.469 255.888C75.7471 256.761 76.4289 257.197 77.5143 257.197C78.0974 257.197 78.5728 257.044 78.9406 256.738C79.3084 256.432 79.4923 256.005 79.4923 255.456C79.4923 254.907 79.3084 254.479 78.9406 254.173C78.5728 253.858 78.0974 253.701 77.5143 253.701H77.1914L76.6935 252.931L78.8734 249.975H74.6886V248.8H80.34V249.907L78.2948 252.675Z"
        fill="white"
      />
      <path
        d="M90.4412 255.28V256.455H89.2975V258.25H88.0461V256.455H83.2423V255.28L86.6198 248.8H87.9653L84.5879 255.28H88.0461V252.607H89.2975V255.28H90.4412Z"
        fill="white"
      />
      <path
        d="M106.447 252.486C107.335 252.486 108.084 252.751 108.694 253.282C109.313 253.804 109.623 254.529 109.623 255.456C109.623 256.374 109.309 257.098 108.681 257.629C108.053 258.16 107.29 258.426 106.393 258.426C105.676 258.426 105.034 258.255 104.469 257.913C103.904 257.562 103.509 257.058 103.285 256.401L104.348 255.793C104.474 256.252 104.716 256.603 105.075 256.846C105.434 257.08 105.873 257.197 106.393 257.197C106.985 257.197 107.465 257.044 107.833 256.738C108.201 256.432 108.385 256.005 108.385 255.456C108.385 254.907 108.201 254.479 107.833 254.173C107.465 253.858 106.994 253.701 106.42 253.701H103.756L104.106 248.8H109.259V249.975H105.236L105.075 252.486H106.447Z"
        fill="white"
      />
      <path
        d="M115.153 252.067C116.095 252.067 116.871 252.364 117.481 252.958C118.091 253.543 118.396 254.304 118.396 255.24C118.396 256.176 118.091 256.941 117.481 257.535C116.871 258.129 116.095 258.426 115.153 258.426C114.202 258.426 113.421 258.129 112.811 257.535C112.21 256.941 111.91 256.176 111.91 255.24C111.91 254.511 112.098 253.881 112.475 253.35L115.503 248.8H116.929L114.709 252.094C114.906 252.076 115.054 252.067 115.153 252.067ZM113.7 256.684C114.076 257.044 114.561 257.224 115.153 257.224C115.745 257.224 116.225 257.044 116.593 256.684C116.969 256.315 117.158 255.834 117.158 255.24C117.158 254.646 116.969 254.169 116.593 253.809C116.225 253.449 115.745 253.269 115.153 253.269C114.552 253.269 114.067 253.449 113.7 253.809C113.332 254.169 113.148 254.646 113.148 255.24C113.148 255.834 113.332 256.315 113.7 256.684Z"
        fill="white"
      />
      <path
        d="M119.614 248.8H125.494V249.921L122.063 258.25H120.758L124.162 249.988H119.614V248.8Z"
        fill="white"
      />
      <path
        d="M132.346 253.363C132.803 253.597 133.162 253.912 133.422 254.308C133.682 254.704 133.812 255.154 133.812 255.658C133.812 256.522 133.512 257.202 132.911 257.697C132.31 258.183 131.534 258.426 130.583 258.426C129.641 258.426 128.869 258.183 128.268 257.697C127.667 257.202 127.367 256.522 127.367 255.658C127.367 255.154 127.497 254.704 127.757 254.308C128.017 253.912 128.376 253.597 128.834 253.363C128.062 252.877 127.676 252.189 127.676 251.298C127.676 250.443 127.959 249.786 128.524 249.327C129.098 248.859 129.784 248.625 130.583 248.625C131.39 248.625 132.076 248.859 132.642 249.327C133.216 249.786 133.503 250.443 133.503 251.298C133.503 252.189 133.117 252.877 132.346 253.363ZM130.583 249.826C130.107 249.826 129.708 249.952 129.385 250.204C129.071 250.456 128.914 250.83 128.914 251.325C128.914 251.802 129.076 252.175 129.399 252.445C129.722 252.706 130.116 252.837 130.583 252.837C131.049 252.837 131.444 252.706 131.767 252.445C132.09 252.175 132.251 251.802 132.251 251.325C132.251 250.83 132.094 250.456 131.78 250.204C131.466 249.952 131.067 249.826 130.583 249.826ZM130.583 257.224C131.184 257.224 131.664 257.085 132.023 256.806C132.39 256.518 132.574 256.108 132.574 255.577C132.574 255.055 132.39 254.655 132.023 254.376C131.664 254.088 131.184 253.944 130.583 253.944C129.991 253.944 129.511 254.088 129.143 254.376C128.784 254.655 128.605 255.055 128.605 255.577C128.605 256.108 128.784 256.518 129.143 256.806C129.511 257.085 129.991 257.224 130.583 257.224Z"
        fill="white"
      />
      <path
        d="M153.782 251.797C153.782 252.526 153.589 253.161 153.204 253.701H153.217L150.176 258.25H148.763L150.997 254.943C150.799 254.961 150.647 254.97 150.539 254.97C149.588 254.97 148.808 254.677 148.198 254.092C147.597 253.498 147.296 252.733 147.296 251.797C147.296 250.861 147.597 250.101 148.198 249.516C148.808 248.922 149.588 248.625 150.539 248.625C151.49 248.625 152.266 248.922 152.867 249.516C153.477 250.101 153.782 250.861 153.782 251.797ZM149.086 250.366C148.718 250.726 148.534 251.203 148.534 251.797C148.534 252.391 148.718 252.873 149.086 253.242C149.463 253.602 149.947 253.782 150.539 253.782C151.131 253.782 151.611 253.602 151.979 253.242C152.356 252.873 152.544 252.391 152.544 251.797C152.544 251.203 152.36 250.726 151.993 250.366C151.625 250.006 151.14 249.826 150.539 249.826C149.947 249.826 149.463 250.006 149.086 250.366Z"
        fill="white"
      />
      <path
        d="M158.237 248.8H159.314V258.25H158.076V250.15L156.071 250.744L155.761 249.664L158.237 248.8Z"
        fill="white"
      />
      <path
        d="M168.698 257.089C168.062 257.98 167.169 258.426 166.021 258.426C164.872 258.426 163.98 257.98 163.343 257.089C162.706 256.198 162.388 255.01 162.388 253.525C162.388 252.04 162.706 250.852 163.343 249.961C163.98 249.07 164.872 248.625 166.021 248.625C167.169 248.625 168.062 249.07 168.698 249.961C169.335 250.852 169.654 252.04 169.654 253.525C169.654 255.01 169.335 256.198 168.698 257.089ZM164.258 256.239C164.671 256.878 165.258 257.197 166.021 257.197C166.783 257.197 167.371 256.878 167.783 256.239C168.205 255.6 168.416 254.695 168.416 253.525C168.416 252.355 168.205 251.451 167.783 250.812C167.371 250.164 166.783 249.84 166.021 249.84C165.258 249.84 164.671 250.159 164.258 250.798C163.845 251.437 163.639 252.346 163.639 253.525C163.639 254.695 163.845 255.6 164.258 256.239Z"
        fill="white"
      />
      <path
        d="M174.072 248.8H175.149V258.25H173.911V250.15L171.906 250.744L171.596 249.664L174.072 248.8Z"
        fill="white"
      />
      <path
        d="M191.447 248.8H192.523V258.25H191.285V250.15L189.28 250.744L188.971 249.664L191.447 248.8Z"
        fill="white"
      />
      <path
        d="M197.656 248.8H198.732V258.25H197.494V250.15L195.49 250.744L195.18 249.664L197.656 248.8Z"
        fill="white"
      />
      <path
        d="M201.685 258.25V257.224L205.009 253.822C205.897 252.931 206.341 252.166 206.341 251.527C206.341 250.996 206.18 250.582 205.857 250.285C205.534 249.988 205.139 249.84 204.672 249.84C203.784 249.84 203.138 250.263 202.735 251.109L201.685 250.488C201.981 249.876 202.389 249.412 202.91 249.097C203.439 248.782 204.022 248.625 204.659 248.625C205.448 248.625 206.135 248.886 206.718 249.408C207.301 249.93 207.592 250.632 207.592 251.514C207.592 252.468 207.032 253.507 205.91 254.632L203.502 257.035H207.767V258.25H201.685Z"
        fill="white"
      />
      <path
        d="M212.308 248.8H213.385V258.25H212.147V250.15L210.142 250.744L209.832 249.664L212.308 248.8Z"
        fill="white"
      />
    </g>
    <rect
      x="46.5"
      y="169.5"
      width="260.643"
      height="164"
      rx="6.5"
      stroke="url(#paint1_linear_825_2522)"
    />
    <g filter="url(#filter0_d_825_2522)">
      <circle cx="35" cy="97" r="25" fill="white" />
    </g>
    <g clip-path="url(#clip1_825_2522)">
      <g filter="url(#filter1_d_825_2522)">
        <path
          d="M35 84.5C32.2496 84.5 30 86.7496 30 89.5V92H27.8125C26.2619 92 25 93.2619 25 94.8125V106.688C25 108.238 26.2619 109.5 27.8125 109.5H42.1875C43.7381 109.5 45 108.238 45 106.688V94.8125C45 93.2619 43.7381 92 42.1875 92H40V89.5C40 86.7496 37.7504 84.5 35 84.5ZM35 86.375C36.7371 86.375 38.125 87.7629 38.125 89.5V92H31.875V89.5C31.875 87.7629 33.2629 86.375 35 86.375ZM35 98.875C36.0356 98.875 36.875 99.7144 36.875 100.75C36.875 101.786 36.0356 102.625 35 102.625C33.9644 102.625 33.125 101.786 33.125 100.75C33.125 99.7144 33.9644 98.875 35 98.875Z"
          fill="#212522"
        />
      </g>
    </g>
    <g filter="url(#filter2_d_825_2522)">
      <circle cx="305" cy="50" r="40" fill="white" />
    </g>
    <g clip-path="url(#clip2_825_2522)">
      <g filter="url(#filter3_d_825_2522)">
        <path
          d="M305.546 29.875C305.183 29.8637 304.83 29.9929 304.561 30.2357C304.561 30.2357 297.522 36.4375 289.094 36.4375C288.721 36.4376 288.363 36.5857 288.099 36.8494C287.836 37.1132 287.688 37.4708 287.688 37.8438V49.3373C287.688 55.598 290.584 65.8998 304.954 71.9527C305.127 72.0254 305.313 72.0628 305.5 72.0628C305.687 72.0628 305.873 72.0254 306.046 71.9527C320.416 65.8998 323.312 55.598 323.312 49.3373V37.8438C323.312 37.4708 323.164 37.1132 322.901 36.8494C322.637 36.5857 322.279 36.4376 321.906 36.4375C313.478 36.4375 306.439 30.2357 306.439 30.2357C306.193 30.014 305.877 29.8863 305.546 29.875ZM312.529 44.875C312.889 44.875 313.249 45.0123 313.524 45.287C314.073 45.8354 314.073 46.7271 313.524 47.2755L304.149 56.6505C303.876 56.9252 303.516 57.0625 303.156 57.0625C302.796 57.0625 302.437 56.9252 302.162 56.6505L297.474 51.963C296.925 51.4146 296.925 50.5229 297.474 49.9745C298.024 49.4251 298.914 49.4251 299.463 49.9745L303.154 53.6677L311.535 45.287C311.81 45.0123 312.17 44.875 312.529 44.875Z"
          fill="#212522"
        />
      </g>
    </g>
    <path d="M110.604 131.253V138.835" stroke="white" stroke-linecap="round" />
    <path d="M101 142.879H108.582" stroke="white" stroke-linecap="round" />
    <path d="M112.626 142.879H120.208" stroke="white" stroke-linecap="round" />
    <path d="M110.604 146.418V154" stroke="white" stroke-linecap="round" />
    <path d="M125.972 108V112.549" stroke="white" stroke-linecap="round" />
    <path d="M120.209 114.976H124.758" stroke="white" stroke-linecap="round" />
    <path d="M127.186 114.976H131.735" stroke="white" stroke-linecap="round" />
    <path d="M125.972 117.099V121.648" stroke="white" stroke-linecap="round" />
    <defs>
      <filter
        id="filter0_d_825_2522"
        x="0"
        y="62"
        width="70"
        height="70"
        filterUnits="userSpaceOnUse"
        color-interpolation-filters="sRGB"
      >
        <feFlood flood-opacity="0" result="BackgroundImageFix" />
        <feColorMatrix
          in="SourceAlpha"
          type="matrix"
          values="0 0 0 0 0 0 0 0 0 0 0 0 0 0 0 0 0 0 127 0"
          result="hardAlpha"
        />
        <feOffset />
        <feGaussianBlur stdDeviation="5" />
        <feComposite in2="hardAlpha" operator="out" />
        <feColorMatrix
          type="matrix"
          values="0 0 0 0 0 0 0 0 0 0 0 0 0 0 0 0 0 0 0.12 0"
        />
        <feBlend
          mode="normal"
          in2="BackgroundImageFix"
          result="effect1_dropShadow_825_2522"
        />
        <feBlend
          mode="normal"
          in="SourceGraphic"
          in2="effect1_dropShadow_825_2522"
          result="shape"
        />
      </filter>
      <filter
        id="filter1_d_825_2522"
        x="21"
        y="81.5"
        width="28"
        height="33"
        filterUnits="userSpaceOnUse"
        color-interpolation-filters="sRGB"
      >
        <feFlood flood-opacity="0" result="BackgroundImageFix" />
        <feColorMatrix
          in="SourceAlpha"
          type="matrix"
          values="0 0 0 0 0 0 0 0 0 0 0 0 0 0 0 0 0 0 127 0"
          result="hardAlpha"
        />
        <feOffset dy="1" />
        <feGaussianBlur stdDeviation="2" />
        <feComposite in2="hardAlpha" operator="out" />
        <feColorMatrix
          type="matrix"
          values="0 0 0 0 0 0 0 0 0 0 0 0 0 0 0 0 0 0 0.08 0"
        />
        <feBlend
          mode="normal"
          in2="BackgroundImageFix"
          result="effect1_dropShadow_825_2522"
        />
        <feBlend
          mode="normal"
          in="SourceGraphic"
          in2="effect1_dropShadow_825_2522"
          result="shape"
        />
      </filter>
      <filter
        id="filter2_d_825_2522"
        x="255"
        y="0"
        width="100"
        height="100"
        filterUnits="userSpaceOnUse"
        color-interpolation-filters="sRGB"
      >
        <feFlood flood-opacity="0" result="BackgroundImageFix" />
        <feColorMatrix
          in="SourceAlpha"
          type="matrix"
          values="0 0 0 0 0 0 0 0 0 0 0 0 0 0 0 0 0 0 127 0"
          result="hardAlpha"
        />
        <feOffset />
        <feGaussianBlur stdDeviation="5" />
        <feComposite in2="hardAlpha" operator="out" />
        <feColorMatrix
          type="matrix"
          values="0 0 0 0 0 0 0 0 0 0 0 0 0 0 0 0 0 0 0.12 0"
        />
        <feBlend
          mode="normal"
          in2="BackgroundImageFix"
          result="effect1_dropShadow_825_2522"
        />
        <feBlend
          mode="normal"
          in="SourceGraphic"
          in2="effect1_dropShadow_825_2522"
          result="shape"
        />
      </filter>
      <filter
        id="filter3_d_825_2522"
        x="283.688"
        y="26.8743"
        width="43.625"
        height="50.1885"
        filterUnits="userSpaceOnUse"
        color-interpolation-filters="sRGB"
      >
        <feFlood flood-opacity="0" result="BackgroundImageFix" />
        <feColorMatrix
          in="SourceAlpha"
          type="matrix"
          values="0 0 0 0 0 0 0 0 0 0 0 0 0 0 0 0 0 0 127 0"
          result="hardAlpha"
        />
        <feOffset dy="1" />
        <feGaussianBlur stdDeviation="2" />
        <feComposite in2="hardAlpha" operator="out" />
        <feColorMatrix
          type="matrix"
          values="0 0 0 0 0 0 0 0 0 0 0 0 0 0 0 0 0 0 0.08 0"
        />
        <feBlend
          mode="normal"
          in2="BackgroundImageFix"
          result="effect1_dropShadow_825_2522"
        />
        <feBlend
          mode="normal"
          in="SourceGraphic"
          in2="effect1_dropShadow_825_2522"
          result="shape"
        />
      </filter>
      <linearGradient
        id="paint0_linear_825_2522"
        x1="41.2861"
        y1="337.536"
        x2="314.897"
        y2="165.754"
        gradientUnits="userSpaceOnUse"
      >
        <stop stop-color="#051F4F" />
        <stop offset="0.185417" stop-color="#0D2F6B" />
        <stop offset="0.419792" stop-color="#164AA5" />
        <stop offset="0.669792" stop-color="#2272FF" />
        <stop offset="1" stop-color="#2298FF" />
      </linearGradient>
      <linearGradient
        id="paint1_linear_825_2522"
        x1="73.6594"
        y1="169"
        x2="500.304"
        y2="466.564"
        gradientUnits="userSpaceOnUse"
      >
        <stop stop-color="white" stop-opacity="0.6" />
        <stop offset="1" stop-opacity="0" />
        <stop offset="1" stop-color="white" stop-opacity="0.3" />
      </linearGradient>
      <clipPath id="clip0_825_2522">
        <rect x="46" y="169" width="261.643" height="165" rx="7" fill="white" />
      </clipPath>
      <clipPath id="clip1_825_2522">
        <rect
          width="30"
          height="30"
          fill="white"
          transform="translate(20 82)"
        />
      </clipPath>
      <clipPath id="clip2_825_2522">
        <rect
          width="45"
          height="45"
          fill="white"
          transform="translate(283 28)"
        />
      </clipPath>
    </defs>
  </svg>
